<svg xmlns="http://www.w3.org/2000/svg" xmlns:xlink="http://www.w3.org/1999/xlink" version="1.1" id="Layer_1" x="0px" y="0px" width="100px" height="100px" viewBox="0 0 100 100" enable-background="new 0 0 100 100" xml:space="preserve">
<rect fill="none" width="100" height="100"/>
<path d="M58.063,13.06c-19.34,0-35.225,14.947-36.787,33.898H8.042c-1.174,0-2.241,0.674-2.747,1.73  c-0.506,1.056-0.354,2.314,0.382,3.224l16.126,19.924c0.573,0.714,1.443,1.129,2.365,1.129c0.916,0,1.78-0.415,2.365-1.129  L42.66,51.912c0.736-0.904,0.888-2.167,0.382-3.224c-0.506-1.056-1.573-1.73-2.747-1.73h-12.93  c1.534-15.593,14.711-27.81,30.698-27.81c17.015,0,30.854,13.84,30.854,30.854c0,17.008-13.84,30.849-30.854,30.849  c-1.685,0-3.044,1.364-3.044,3.044s1.359,3.045,3.044,3.045C78.43,86.94,95,70.364,95,50.003C95,29.63,78.43,13.06,58.063,13.06z   M24.169,65.084l-9.751-12.037H33.92L24.169,65.084z"/>
</svg>